<svg xmlns="http://www.w3.org/2000/svg" viewBox="0 0 512 512" fill="none">
  <defs>
    <linearGradient id="sky" x1="0" y1="0" x2="0" y2="1">
      <stop offset="0%" stop-color="#7dd3fc"/>
      <stop offset="100%" stop-color="#38bdf8"/>
    </linearGradient>
    <linearGradient id="sea" x1="0" y1="0" x2="1" y2="0">
      <stop offset="0%" stop-color="#0ea5e9"/>
      <stop offset="100%" stop-color="#0284c7"/>
    </linearGradient>
  </defs>
  <rect width="512" height="512" rx="112" fill="url(#sky)"/>
  <path d="M0 368 C128 320 192 400 320 352 C384 328 448 368 512 336 V512 H0 Z" fill="url(#sea)" opacity="0.9"/>
  <path d="M0 400 C160 368 224 432 384 384 C448 368 480 400 512 384 V512 H0 Z" fill="#0369a1" opacity="0.55"/>
  <rect x="224" y="144" width="64" height="208" rx="8" fill="#f8fafc"/>
  <rect x="208" y="240" width="96" height="24" rx="4" fill="#e2e8f0"/>
  <rect x="208" y="288" width="96" height="24" rx="4" fill="#e2e8f0"/>
  <path d="M208 144 L256 80 L304 144 Z" fill="#f1f5f9"/>
  <circle cx="256" cy="112" r="20" fill="#fef08a"/>
  <path d="M256 96 L320 64 L320 144 Z" fill="#fef9c3" opacity="0.45"/>
  <circle cx="256" cy="416" r="16" fill="#f0f9ff" opacity="0.8"/>
</svg>
